
<svg version="1.1" id="Layer_1" xmlns="http://www.w3.org/2000/svg" xmlns:xlink="http://www.w3.org/1999/xlink" x="0px" y="0px"
	 width="1226px" height="482px" viewBox="0 0 1226 482" enable-background="new 0 0 1226 482" xml:space="preserve">
<g>
	<path fill="none" stroke="#FFFFFF" stroke-width="3" stroke-miterlimit="10" d="M177.2,156l1.4-4.6l1.2-4.6l2.4-9.4
		c0.666-3.065,1.3-6.131,1.9-9.2c0.6-3.066,1.031-6.131,1.3-9.2c0.4-3.065,0.7-6.065,0.9-9c0.2-2.931,0.231-5.866,0.1-8.8
		c-0.134-2.932-0.369-5.766-0.7-8.5c-0.334-2.731-0.834-5.432-1.5-8.1c-1.469-5.466-3.469-10.066-6-13.8c-1.334-2-2.8-3.766-4.4-5.3
		c-1.6-1.531-3.334-2.831-5.2-3.9c-0.935-0.531-1.9-1.031-2.9-1.5c-1-0.466-2.035-0.832-3.1-1.1c-2-0.666-4.2-1.131-6.6-1.4
		c-4.935-0.4-9.935,0.069-15,1.4c-4.935,1.2-10.134,3.134-15.6,5.8c-2.534,1.334-5.034,2.769-7.5,4.3
		c-2.469,1.534-4.969,3.168-7.5,4.9c-4.8,3.6-9.469,7.469-14,11.6c-4.668,4.269-9.069,8.668-13.2,13.2c-2.135,2.4-4.2,4.8-6.2,7.2
		s-3.935,4.869-5.8,7.4c-2,2.535-3.935,5.069-5.8,7.6c-1.869,2.534-3.734,5.134-5.6,7.8C52.466,139.869,45.866,150.935,40,162
		l-4.6,8.8c-0.269,0.669-0.6,1.369-1,2.1c-0.4,0.734-0.734,1.5-1,2.3l-1.2,2l-1,2.2l-3.8,8.8c-0.668,1.469-1.234,2.969-1.7,4.5
		c-0.469,1.534-0.969,3.034-1.5,4.5l-1.6,4.6l-1.2,4.4l-1.2,4.6c-0.269,0.8-0.435,1.6-0.5,2.4c-0.069,0.8-0.169,1.534-0.3,2.2
		c-0.269,0.8-0.434,1.6-0.5,2.4c-0.069,0.8-0.168,1.6-0.3,2.4c-0.134,0.668-0.234,1.4-0.3,2.2c-0.068,0.8-0.1,1.6-0.1,2.4
		c-0.135,1.469-0.234,2.969-0.3,4.5c-0.069,1.535-0.034,3.035,0.1,4.5c0.4,6.4,1.866,12.135,4.4,17.2c1.066,2.4,2.6,4.8,4.6,7.2
		c1.065,1.068,2.1,2.1,3.1,3.1s2.1,1.969,3.3,2.9c4.666,3.334,10.131,5.6,16.4,6.8c5.731,1.331,11.932,1.8,18.6,1.4
		c3.066-0.134,6.166-0.434,9.3-0.9c3.131-0.469,6.231-1.034,9.3-1.7c3.065-0.666,6.131-1.5,9.2-2.5c3.065-1,6.131-2.031,9.2-3.1
		c6-2.266,11.832-4.866,17.5-7.8c5.666-2.931,11.3-6.131,16.9-9.6l8-5.2l7.8-5.8c2.531-2,5.031-4,7.5-6c2.465-2,4.831-4.131,7.1-6.4
		c2.4-2.266,4.731-4.5,7-6.7c2.266-2.2,4.465-4.5,6.6-6.9l6.4-7.2l6-7.6l2.8-2.2c3.065-2.266,6.531-3.131,10.4-2.6
		c3.866,0.534,7,2.334,9.4,5.4c1.731,2.269,2.666,4.869,2.8,7.8c0.131,2.935-0.535,5.535-2,7.8l-4.4,7.6l-4.2,7.8
		c-1.469,2.534-2.869,5.069-4.2,7.6c-1.334,2.534-2.668,5.134-4,7.8c-2.668,5.2-5.3,10.4-7.9,15.6c-2.6,5.2-5.168,10.469-7.7,15.8
		c-2.535,5.332-5.035,10.631-7.5,15.9c-2.469,5.266-4.834,10.565-7.1,15.9c-1.2,2.665-2.4,5.331-3.6,8c-1.2,2.665-2.334,5.331-3.4,8
		l-3.6,8c-0.534,1.466-1.069,2.831-1.6,4.1c-0.534,1.266-1.134,2.632-1.8,4.101c-4.535,10.8-8.969,21.565-13.3,32.3
		c-4.334,10.731-8.568,21.565-12.7,32.5c-1.069,2.8-2.1,5.565-3.1,8.3c-1,2.731-2.034,5.432-3.1,8.1l-6,16.601l-5.6,16.6
		c-0.934,2.666-1.869,5.4-2.8,8.2c-0.935,2.8-1.8,5.6-2.6,8.4c-1.069,3.465-3.234,6.065-6.5,7.8c-3.269,1.731-6.634,2.065-10.1,1
		c-3.469-1.069-6.068-3.234-7.8-6.5c-1.734-3.269-2.069-6.635-1-10.101l0.8-2.199c1.466-2.669,2.832-5.301,4.1-7.9
		c1.266-2.6,2.566-5.234,3.9-7.9l7.6-15.8c1.332-2.669,2.6-5.3,3.8-7.899c1.2-2.601,2.4-5.234,3.6-7.9l7.4-16
		c4.8-10.669,9.531-21.334,14.2-32c4.666-10.669,9.266-21.4,13.8-32.2l3.4-8l3.4-8.2l6.6-16.199c2.266-5.469,4.465-10.869,6.6-16.2
		c2.131-5.334,4.266-10.8,6.4-16.4c1.465-3.865,2.931-7.766,4.4-11.7c1.466-3.931,2.931-7.9,4.4-11.9
		c-2.269,1.469-4.5,2.834-6.7,4.1c-2.2,1.269-4.435,2.569-6.7,3.9c-1.469,0.934-2.935,1.8-4.4,2.6c-1.469,0.8-3,1.6-4.6,2.4
		c-1.469,0.8-2.969,1.6-4.5,2.4c-1.534,0.8-3.034,1.534-4.5,2.2c-6.134,3.069-12.334,5.9-18.6,8.5c-6.269,2.6-12.668,4.9-19.2,6.9
		c-3.334,1.065-6.635,2-9.9,2.8c-3.269,0.8-6.634,1.531-10.1,2.2c-3.469,0.666-6.9,1.166-10.3,1.5c-3.4,0.331-6.834,0.565-10.3,0.7
		c-3.469,0.131-6.935,0.066-10.4-0.2c-3.469-0.269-6.935-0.8-10.4-1.6c-1.869-0.269-3.634-0.669-5.3-1.2
		c-1.669-0.534-3.369-1.134-5.1-1.8c-3.2-1.334-6.4-3.069-9.6-5.2c-3.334-2.269-6.134-4.731-8.4-7.4c-1.334-1.466-2.5-2.966-3.5-4.5
		c-1-1.531-1.969-3.1-2.9-4.7c-1.6-3.2-2.935-6.6-4-10.2c-0.534-1.866-0.935-3.666-1.2-5.4c-0.269-1.731-0.534-3.531-0.8-5.4
		c-0.4-3.331-0.6-6.865-0.6-10.6c0-0.932,0.031-1.8,0.1-2.6c0.065-0.8,0.1-1.666,0.1-2.6l0.6-5.2l0.6-5.2l1-5.2
		c0.666-3.6,1.466-6.931,2.4-10c0.4-1.731,0.831-3.4,1.3-5c0.466-1.6,0.966-3.266,1.5-5l3.2-9.6l2-4.8l1.8-4.8l3.8-9.4
		c2.666-6.266,5.432-12.431,8.3-18.5c2.866-6.065,5.965-12.1,9.3-18.1c1.731-3.066,3.466-6.031,5.2-8.9
		c1.731-2.865,3.531-5.766,5.4-8.7c1.866-2.931,3.8-5.8,5.8-8.6s4.066-5.6,6.2-8.4c2.131-2.8,4.331-5.5,6.6-8.1
		c2.266-2.6,4.6-5.231,7-7.9c2.531-2.531,5.1-5.031,7.7-7.5c2.6-2.466,5.3-4.832,8.1-7.1c2.8-2.266,5.731-4.4,8.8-6.4
		c3.065-2,6.266-3.931,9.6-5.8c3.2-1.865,6.566-3.531,10.1-5c3.531-1.465,7.231-2.731,11.1-3.8c4.131-1.065,8.065-1.8,11.8-2.2
		c2.131-0.266,4.231-0.431,6.3-0.5c2.065-0.065,4.166,0.035,6.3,0.3c2.131,0.269,4.266,0.6,6.4,1c2.131,0.4,4.2,0.934,6.2,1.6
		c2.131,0.668,4.231,1.469,6.3,2.4c2.066,0.934,4.031,1.934,5.9,3c3.731,2.4,7.131,5.2,10.2,8.4c3.066,3.2,5.731,6.669,8,10.4
		c1.066,1.869,2.031,3.734,2.9,5.6c0.866,1.869,1.631,3.734,2.3,5.6c1.465,4.134,2.465,8.069,3,11.8c0.666,3.869,1.031,7.7,1.1,11.5
		c0.065,3.8-0.1,7.569-0.5,11.3c-0.269,3.734-0.769,7.369-1.5,10.9c-0.734,3.534-1.635,7.034-2.7,10.5
		c-1.069,3.469-2.269,6.834-3.6,10.1c-1.334,3.269-2.8,6.434-4.4,9.5c-0.669,1.6-1.435,3.168-2.3,4.7
		c-0.869,1.535-1.769,3.035-2.7,4.5c-0.4,0.8-0.834,1.569-1.3,2.3c-0.469,0.734-0.9,1.434-1.3,2.1L189,159
		c-0.269,0.269-0.534,0.6-0.8,1c-0.269,0.4-0.535,0.8-0.8,1.2c-0.934,1.334-2.168,2.1-3.7,2.3c-1.535,0.2-2.969-0.166-4.3-1.1
		c-1.069-0.666-1.769-1.6-2.1-2.8C176.966,158.4,176.931,157.2,177.2,156z"/>
	<path fill="none" stroke="#FFFFFF" stroke-width="3" stroke-miterlimit="10" d="M239.799,205.8l-0.6,1l-0.6,1.2l-1.2,2.2l-2.2,4.4
		l-4,9l-3.6,9.2c-0.535,1.6-1.066,3.169-1.6,4.7c-0.531,1.534-1,3.1-1.4,4.7c-0.531,1.469-1.031,3-1.5,4.6
		c-0.466,1.6-0.832,3.2-1.1,4.8l-1.2,4.6l-0.8,4.8l-0.6,4.4c0,0.8-0.031,1.535-0.1,2.2c-0.065,0.668-0.031,1.334,0.1,2v0.2
		c0.535-0.266,1.269-0.865,2.2-1.8l2.8-3.2c0.535-0.531,1-1.1,1.4-1.7c0.4-0.6,0.8-1.231,1.2-1.9c0.531-0.531,1-1.2,1.4-2l1.2-2
		l2.4-4c0.8-1.466,1.565-2.9,2.3-4.3c0.731-1.4,1.432-2.831,2.1-4.3c1.332-3.066,2.566-6.1,3.7-9.1c1.131-3,2.231-6.031,3.3-9.1
		l2.8-9.4c0.266-0.8,0.465-1.6,0.6-2.4c0.131-0.8,0.332-1.6,0.6-2.4l0.2-0.8v-0.8l0.2,0.2l0.2-1l0.2-1.2l0.2-0.6v-0.6
		c0.266-3.331,1.666-6.031,4.2-8.1c2.531-2.065,5.4-2.965,8.6-2.7c2.8,0.269,5.166,1.269,7.1,3c1.932,1.734,3.166,3.934,3.7,6.6
		c0.666,3.068,0.731,6,0.2,8.8c-0.535,2.8-0.935,4.669-1.2,5.6c-0.4,1.069-0.769,2.2-1.1,3.4c-0.334,1.2-0.634,2.4-0.9,3.6
		c-0.269,1.069-0.5,2.2-0.7,3.4c-0.2,1.2-0.434,2.4-0.7,3.6c-0.269,1.2-0.469,2.369-0.6,3.5c-0.134,1.134-0.269,2.3-0.4,3.5
		c-0.269,1.069-0.4,2.2-0.4,3.4s0,2.334,0,3.4v2.4l1.6-1.8c0.4-0.266,0.8-0.631,1.2-1.1c0.4-0.465,0.731-0.9,1-1.3l2.2-2.6l2.2-3
		l2-2.8c1.332-2,2.631-4.031,3.9-6.1c1.266-2.066,2.432-4.166,3.5-6.3c2.266-4,4.466-8.331,6.6-13c0.666-1.065,1.2-2.166,1.6-3.3
		c0.4-1.131,0.866-2.231,1.4-3.3c0.266-0.8,0.531-1.4,0.8-1.8l0.6-1.6l0.6-1.8l0.4-0.8c0-0.131,0.031-0.266,0.1-0.4
		c0.066-0.131,0.1-0.266,0.1-0.4c0.666-1.866,1.8-3.231,3.4-4.1c1.6-0.865,3.332-0.965,5.2-0.3c1.731,0.534,3.031,1.6,3.9,3.2
		c0.866,1.6,1.031,3.334,0.5,5.2c-0.269,0.669-0.534,1.134-0.8,1.4v0.2l-1,1.6l-1,1.8l-2,3.2l-3.6,6.4l-7.6,13
		c-1.2,2.269-2.435,4.435-3.7,6.5c-1.269,2.069-2.568,4.234-3.9,6.5l-2.2,3.2l-2,3.2c-0.8,1.069-1.569,2.134-2.3,3.2
		c-0.734,1.069-1.569,2.134-2.5,3.2l-2.8,3.2l-1.8,1.4c-0.668,0.669-1.4,1.2-2.2,1.6c-0.8,0.534-1.734,1-2.8,1.4l-2,0.6h-2.8
		c-0.669-0.131-1.234-0.3-1.7-0.5c-0.469-0.2-0.969-0.431-1.5-0.7c-1.068-0.8-1.734-1.4-2-1.8c-0.4-0.4-0.869-1-1.4-1.8
		c-0.134-0.266-0.234-0.5-0.3-0.7c-0.069-0.2-0.234-0.431-0.5-0.7l-1-2.6l-0.6-2.2l-1-4c-0.8,1.069-1.334,1.869-1.6,2.4l-5.8,8.6
		c-2.134,3.069-4.2,5.935-6.2,8.6l-3.6,4.2l-4,4.2c-0.8,0.666-1.6,1.3-2.4,1.9c-0.8,0.6-1.731,1.231-2.8,1.9
		c-1.2,0.666-2.332,1.2-3.4,1.6l-2.2,0.6c-0.4,0-0.731,0.065-1,0.2h-2.6c-0.8,0-1.4-0.069-1.8-0.2c-1.066-0.4-2.2-0.935-3.4-1.6
		c-0.932-0.668-1.731-1.534-2.4-2.6l-1.4-2.2c-0.266-0.669-0.465-1.334-0.6-2c-0.131-0.669-0.266-1.269-0.4-1.8
		c-0.131-0.668-0.231-1.234-0.3-1.7c-0.066-0.469-0.1-1.035-0.1-1.7c-0.131-1.065-0.2-2.031-0.2-2.9c0-0.866,0-1.831,0-2.9l0.4-5.4
		l0.6-5.2l0.8-5.2c0.269-1.731,0.534-3.431,0.8-5.1c0.269-1.666,0.535-3.366,0.8-5.1l3.6-20.2l1.6-10.2
		c0.269-0.932,0.435-1.8,0.5-2.6c0.069-0.8,0.169-1.666,0.3-2.6l0.4-2.6l0.2-1.2l0.2-1.4v-0.6c0.534-3.466,2.2-6.3,5-8.5
		c2.8-2.2,6-3.031,9.6-2.5c3.465,0.534,6.3,2.2,8.5,5c2.2,2.8,3.031,5.934,2.5,9.4C241.465,202.469,240.865,204.2,239.799,205.8z"/>
	<path fill="none" stroke="#FFFFFF" stroke-width="3" stroke-miterlimit="10" d="M320.396,190.4l-9.199,18.4l-4.2,8.8l1.6-2.2
		c1.065-1.331,2.166-2.631,3.3-3.9c1.132-1.266,2.3-2.565,3.5-3.9c1.201-1.332,2.367-2.631,3.5-3.9c1.133-1.266,2.432-2.566,3.9-3.9
		l2-2l2.201-2c0.398-0.131,0.865-0.465,1.398-1l1.801-1.2l1-0.6l1.6-0.6l0.201-0.2h0.199l0.4-0.2h0.199
		c0.131-0.131,0.266-0.2,0.4-0.2l0.4-0.2h0.799c0.801-0.266,1.666-0.332,2.602-0.2h0.799c0.266,0.134,0.467,0.2,0.6,0.2h0.4h0.201
		c0.131,0,0.266,0.034,0.398,0.1c0.133,0.068,0.266,0.1,0.4,0.1c0.531,0.135,1.332,0.469,2.4,1l1.801,1.2
		c0.531,0.4,0.965,0.8,1.299,1.2c0.332,0.4,0.631,0.8,0.9,1.2c0.531,0.535,0.932,1.2,1.199,2c0.133,0.269,0.266,0.5,0.4,0.7
		c0.131,0.2,0.201,0.434,0.201,0.7l0.799,2.6l0.4,1.8l0.4,3.4v3c0,1.069,0,2.034,0,2.9c0,0.869-0.068,1.769-0.201,2.7l-0.398,5.2
		l-1.4,10.2l-1.201,9.8v0.2l0.602-1c0.93-1.332,1.865-2.631,2.799-3.9c0.932-1.266,1.801-2.631,2.6-4.1
		c1.867-2.8,3.633-5.6,5.301-8.4c1.666-2.8,3.365-5.666,5.1-8.6l4.801-8.8l2.199-4.6l1.201-2.2l1-2.2c0.799-1.865,2.131-3.131,4-3.8
		c1.865-0.666,3.73-0.531,5.6,0.4c1.865,0.8,3.131,2.1,3.799,3.9c0.666,1.8,0.531,3.635-0.398,5.5c0,0.269-0.035,0.435-0.102,0.5
		c-0.068,0.069-0.1,0.169-0.1,0.3h-0.199l-10.4,17.6c-1.869,2.934-3.668,5.834-5.4,8.7c-1.734,2.869-3.533,5.769-5.4,8.7l-5.6,8.8
		c-0.533,0.669-1.033,1.369-1.5,2.1c-0.469,0.734-1.033,1.435-1.699,2.1c-0.27,0.4-0.535,0.8-0.801,1.2
		c-0.268,0.4-0.533,0.734-0.799,1l-2,2.4l-2.602,2.2c-0.398,0.535-1,1-1.799,1.4l-1.6,0.8l-2.4,0.6c-0.801,0-1.4-0.066-1.801-0.2
		c-0.4,0-1-0.131-1.799-0.4l-1.602-0.6c-0.533-0.531-0.934-0.866-1.199-1c-0.535-0.4-1.068-1-1.6-1.8l-0.801-1.4l-0.799-2.4
		l-0.602-1.8l-0.6-3c0-0.531-0.033-1.031-0.1-1.5c-0.068-0.466-0.1-0.966-0.1-1.5c-0.135-0.931-0.234-1.832-0.301-2.7
		c-0.068-0.866-0.1-1.766-0.1-2.7l-0.6-10.4l-0.6-10v-0.6l-1,1l-7,7.2l-6.801,7c-4.669,4.8-9.269,9.7-13.8,14.7
		s-8.931,10.034-13.2,15.1l-6.2,7.8l-2.4,3.2l-1.4,2.4l-0.8,1.4c0,0.131-0.131,0.331-0.4,0.6l-0.6,1l-0.4,0.6l-0.8,0.8l-0.8,0.6
		c0,0.131-0.2,0.266-0.6,0.4c-0.266,0.266-0.332,0.331-0.2,0.2c0.134-0.135,0.069-0.069-0.2,0.2c-0.531,0.266-1.131,0.466-1.8,0.6
		c-1.065,0.266-2,0.365-2.8,0.3c-0.8-0.068-1.631-0.334-2.5-0.8c-0.866-0.469-1.7-1.234-2.5-2.3c-1.066-1.869-1.5-3.169-1.3-3.9
		c0.2-0.734,0.234-1.234,0.1-1.5l0.4-1.2c0-0.269,0.069-0.4,0.2-0.4v-0.4l0.4-0.4V274l0.2-0.2l0.6-0.8
		c0.135-0.269,0.269-0.5,0.4-0.7c0.134-0.2,0.269-0.434,0.4-0.7l0.8-1l0.4-0.6v-0.2l1-2.2l3.6-9.2c1.2-3.065,2.4-6.166,3.6-9.3
		c1.2-3.131,2.334-6.3,3.4-9.5c1.069-3.2,2.1-6.4,3.1-9.6s2.034-6.4,3.1-9.6c1.069-3.2,2.069-6.4,3-9.6c0.934-3.2,1.869-6.4,2.8-9.6
		c0.935-3.332,1.8-6.631,2.6-9.9c0.8-3.266,1.6-6.5,2.4-9.7c0.8-3.6,2.734-6.366,5.8-8.3c3.065-1.931,6.331-2.5,9.8-1.7
		c3.465,0.8,6.2,2.734,8.2,5.8c2,3.069,2.6,6.334,1.801,9.8L320.396,190.4z"/>
	<path fill="none" stroke="#FFFFFF" stroke-width="3" stroke-miterlimit="10" d="M392.595,205.8l-0.6,1l-0.601,1.2l-1.199,2.2
		l-2.2,4.4l-4,9l-3.601,9.2c-0.534,1.6-1.065,3.169-1.6,4.7c-0.531,1.534-1,3.1-1.4,4.7c-0.531,1.469-1.031,3-1.5,4.6
		c-0.465,1.6-0.831,3.2-1.1,4.8l-1.2,4.6l-0.8,4.8l-0.6,4.4c0,0.8-0.031,1.535-0.101,2.2c-0.065,0.668-0.031,1.334,0.101,2v0.2
		c0.534-0.266,1.269-0.865,2.199-1.8l2.801-3.2c0.534-0.531,1-1.1,1.399-1.7c0.4-0.6,0.8-1.231,1.2-1.9c0.531-0.531,1-1.2,1.4-2
		l1.199-2l2.4-4c0.8-1.466,1.565-2.9,2.3-4.3c0.731-1.4,1.432-2.831,2.101-4.3c1.331-3.066,2.565-6.1,3.699-9.1
		c1.132-3,2.231-6.031,3.301-9.1l2.8-9.4c0.266-0.8,0.466-1.6,0.6-2.4c0.132-0.8,0.331-1.6,0.601-2.4l0.199-0.8v-0.8l0.2,0.2l0.2-1
		l0.2-1.2l0.2-0.6v-0.6c0.266-3.331,1.665-6.031,4.199-8.1c2.531-2.065,5.4-2.965,8.601-2.7c2.8,0.269,5.165,1.269,7.1,3
		c1.932,1.734,3.166,3.934,3.7,6.6c0.666,3.068,0.731,6,0.2,8.8c-0.534,2.8-0.935,4.669-1.2,5.6c-0.4,1.069-0.769,2.2-1.1,3.4
		c-0.335,1.2-0.635,2.4-0.9,3.6c-0.269,1.069-0.5,2.2-0.7,3.4s-0.435,2.4-0.7,3.6c-0.269,1.2-0.469,2.369-0.6,3.5
		c-0.135,1.134-0.269,2.3-0.4,3.5c-0.269,1.069-0.399,2.2-0.399,3.4s0,2.334,0,3.4v2.4l1.6-1.8c0.4-0.266,0.8-0.631,1.2-1.1
		c0.4-0.465,0.731-0.9,1-1.3l2.2-2.6l2.2-3l2-2.8c1.331-2,2.631-4.031,3.899-6.1c1.266-2.066,2.432-4.166,3.5-6.3
		c2.266-4,4.466-8.331,6.601-13c0.665-1.065,1.199-2.166,1.6-3.3c0.4-1.131,0.865-2.231,1.4-3.3c0.266-0.8,0.531-1.4,0.8-1.8
		l0.6-1.6l0.601-1.8l0.399-0.8c0-0.131,0.031-0.266,0.101-0.4c0.065-0.131,0.1-0.266,0.1-0.4c0.666-1.866,1.8-3.231,3.4-4.1
		c1.6-0.865,3.331-0.965,5.199-0.3c1.731,0.534,3.031,1.6,3.9,3.2c0.865,1.6,1.031,3.334,0.5,5.2c-0.269,0.669-0.534,1.134-0.8,1.4
		v0.2l-1,1.6l-1,1.8l-2,3.2l-3.601,6.4l-7.6,13c-1.2,2.269-2.435,4.435-3.7,6.5c-1.269,2.069-2.568,4.234-3.899,6.5l-2.2,3.2l-2,3.2
		c-0.8,1.069-1.569,2.134-2.3,3.2c-0.734,1.069-1.569,2.134-2.5,3.2l-2.801,3.2l-1.8,1.4c-0.669,0.669-1.399,1.2-2.2,1.6
		c-0.8,0.534-1.734,1-2.8,1.4l-2,0.6h-2.8c-0.669-0.131-1.234-0.3-1.7-0.5c-0.469-0.2-0.969-0.431-1.5-0.7
		c-1.068-0.8-1.734-1.4-2-1.8c-0.399-0.4-0.868-1-1.399-1.8c-0.135-0.266-0.234-0.5-0.301-0.7c-0.068-0.2-0.234-0.431-0.5-0.7
		l-1-2.6l-0.6-2.2l-1-4c-0.8,1.069-1.334,1.869-1.6,2.4l-5.801,8.6c-2.134,3.069-4.199,5.935-6.199,8.6l-3.601,4.2l-4,4.2
		c-0.8,0.666-1.6,1.3-2.399,1.9c-0.801,0.6-1.731,1.231-2.801,1.9c-1.199,0.666-2.331,1.2-3.399,1.6l-2.2,0.6
		c-0.4,0-0.731,0.065-1,0.2h-2.6c-0.801,0-1.4-0.069-1.801-0.2c-1.065-0.4-2.199-0.935-3.399-1.6c-0.932-0.668-1.731-1.534-2.4-2.6
		l-1.399-2.2c-0.266-0.669-0.466-1.334-0.601-2c-0.131-0.669-0.266-1.269-0.399-1.8c-0.132-0.668-0.231-1.234-0.301-1.7
		c-0.065-0.469-0.1-1.035-0.1-1.7c-0.131-1.065-0.2-2.031-0.2-2.9c0-0.866,0-1.831,0-2.9l0.4-5.4l0.6-5.2l0.8-5.2
		c0.27-1.731,0.535-3.431,0.801-5.1c0.269-1.666,0.534-3.366,0.8-5.1l3.6-20.2l1.601-10.2c0.269-0.932,0.434-1.8,0.5-2.6
		c0.068-0.8,0.168-1.666,0.3-2.6l0.399-2.6l0.2-1.2l0.2-1.4v-0.6c0.534-3.466,2.2-6.3,5-8.5c2.8-2.2,6-3.031,9.6-2.5
		c3.466,0.534,6.301,2.2,8.5,5c2.2,2.8,3.031,5.934,2.5,9.4C394.261,202.469,393.66,204.2,392.595,205.8z"/>
	<path fill="none" stroke="#FFFFFF" stroke-width="3" stroke-miterlimit="10" d="M473.192,190.4l-9.2,18.4l-4.199,8.8l1.6-2.2
		c1.065-1.331,2.166-2.631,3.3-3.9c1.132-1.266,2.3-2.565,3.5-3.9c1.2-1.332,2.366-2.631,3.5-3.9c1.132-1.266,2.432-2.566,3.9-3.9
		l2-2l2.2-2c0.399-0.131,0.865-0.465,1.399-1l1.8-1.2l1-0.6l1.601-0.6l0.2-0.2h0.199l0.4-0.2h0.2c0.131-0.131,0.266-0.2,0.399-0.2
		l0.4-0.2h0.8c0.8-0.266,1.666-0.332,2.601-0.2h0.8c0.266,0.134,0.466,0.2,0.6,0.2h0.4h0.2c0.131,0,0.266,0.034,0.399,0.1
		c0.132,0.068,0.266,0.1,0.4,0.1c0.531,0.135,1.331,0.469,2.399,1l1.801,1.2c0.531,0.4,0.965,0.8,1.3,1.2
		c0.331,0.4,0.631,0.8,0.899,1.2c0.531,0.535,0.932,1.2,1.2,2c0.132,0.269,0.266,0.5,0.4,0.7c0.131,0.2,0.2,0.434,0.2,0.7l0.8,2.6
		l0.399,1.8l0.4,3.4v3c0,1.069,0,2.034,0,2.9c0,0.869-0.068,1.769-0.2,2.7l-0.399,5.2l-1.4,10.2l-1.2,9.8v0.2l0.601-1
		c0.931-1.332,1.865-2.631,2.8-3.9c0.931-1.266,1.8-2.631,2.6-4.1c1.866-2.8,3.632-5.6,5.3-8.4c1.666-2.8,3.366-5.666,5.101-8.6
		l4.8-8.8l2.2-4.6l1.2-2.2l1-2.2c0.8-1.865,2.131-3.131,4-3.8c1.865-0.666,3.73-0.531,5.6,0.4c1.865,0.8,3.131,2.1,3.8,3.9
		c0.666,1.8,0.531,3.635-0.399,5.5c0,0.269-0.035,0.435-0.101,0.5c-0.068,0.069-0.1,0.169-0.1,0.3h-0.2l-10.4,17.6
		c-1.868,2.934-3.668,5.834-5.399,8.7c-1.734,2.869-3.534,5.769-5.4,8.7l-5.6,8.8c-0.534,0.669-1.034,1.369-1.5,2.1
		c-0.469,0.734-1.034,1.435-1.7,2.1c-0.269,0.4-0.534,0.8-0.8,1.2c-0.269,0.4-0.534,0.734-0.8,1l-2,2.4l-2.601,2.2
		c-0.399,0.535-1,1-1.8,1.4l-1.6,0.8l-2.4,0.6c-0.8,0-1.4-0.066-1.8-0.2c-0.4,0-1-0.131-1.8-0.4l-1.601-0.6
		c-0.534-0.531-0.935-0.866-1.2-1c-0.534-0.4-1.068-1-1.6-1.8l-0.8-1.4l-0.8-2.4l-0.601-1.8l-0.6-3c0-0.531-0.034-1.031-0.101-1.5
		c-0.068-0.466-0.1-0.966-0.1-1.5c-0.135-0.931-0.234-1.832-0.3-2.7c-0.069-0.866-0.101-1.766-0.101-2.7l-0.6-10.4l-0.6-10v-0.6
		l-1,1l-7,7.2l-6.801,7c-4.668,4.8-9.269,9.7-13.8,14.7s-8.931,10.034-13.2,15.1l-6.199,7.8l-2.4,3.2l-1.4,2.4l-0.8,1.4
		c0,0.131-0.131,0.331-0.399,0.6l-0.601,1l-0.399,0.6l-0.801,0.8l-0.8,0.6c0,0.131-0.2,0.266-0.6,0.4
		c-0.266,0.266-0.331,0.331-0.2,0.2c0.135-0.135,0.068-0.069-0.2,0.2c-0.531,0.266-1.131,0.466-1.8,0.6
		c-1.065,0.266-2,0.365-2.8,0.3c-0.8-0.068-1.632-0.334-2.5-0.8c-0.866-0.469-1.7-1.234-2.5-2.3c-1.065-1.869-1.5-3.169-1.3-3.9
		c0.199-0.734,0.234-1.234,0.1-1.5l0.4-1.2c0-0.269,0.068-0.4,0.199-0.4v-0.4l0.4-0.4V274l0.2-0.2l0.6-0.8
		c0.135-0.269,0.269-0.5,0.4-0.7c0.134-0.2,0.269-0.434,0.399-0.7l0.801-1l0.399-0.6v-0.2l1-2.2l3.601-9.2
		c1.199-3.065,2.399-6.166,3.6-9.3c1.2-3.131,2.334-6.3,3.4-9.5c1.068-3.2,2.1-6.4,3.1-9.6s2.034-6.4,3.1-9.6
		c1.069-3.2,2.069-6.4,3-9.6c0.935-3.2,1.869-6.4,2.801-9.6c0.934-3.332,1.8-6.631,2.6-9.9c0.8-3.266,1.6-6.5,2.4-9.7
		c0.8-3.6,2.734-6.366,5.8-8.3c3.065-1.931,6.331-2.5,9.8-1.7c3.466,0.8,6.2,2.734,8.2,5.8c2,3.069,2.6,6.334,1.8,9.8L473.192,190.4
		z"/>
	<path fill="none" stroke="#FFFFFF" stroke-width="3" stroke-miterlimit="10" d="M554.39,187c0-0.131,0.065-0.266,0.2-0.4l0.2-0.6
		v-0.4c0.665-1.866,1.831-3.2,3.5-4c1.665-0.8,3.431-0.866,5.3-0.2c1.731,0.669,3,1.769,3.8,3.3c0.8,1.534,0.932,3.168,0.4,4.9
		l-0.2,0.4l-0.2,0.4h0.2l-0.4,0.6l-21.199,73.2c1.6-2.8,3.23-5.566,4.899-8.3c1.666-2.731,3.366-5.5,5.101-8.3
		c5.199-8.531,10.531-16.931,16-25.2c5.465-8.266,11.065-16.465,16.8-24.6c1.065-1.465,2.431-2.365,4.1-2.7
		c1.666-0.332,3.231,0.034,4.7,1.1c1.331,1.068,2.166,2.369,2.5,3.9c0.331,1.534,0.031,3.034-0.9,4.5
		c-10.399,16.668-20.199,33.668-29.399,51c-4.669,8.668-9.169,17.366-13.5,26.1c-4.335,8.731-8.5,17.565-12.5,26.5
		c-4.135,8.8-8.101,17.665-11.9,26.6c-3.8,8.932-7.5,18-11.1,27.2l-10,27.4l-4.8,13.8l-2.2,7l-1,3.399v0.2l-1,3.2l-0.2,0.6
		c-1.2,3.466-3.4,5.966-6.6,7.5c-3.2,1.531-6.531,1.7-10,0.5c-3.466-1.199-5.966-3.399-7.5-6.6c-1.531-3.2-1.7-6.534-0.5-10l0.6-1.6
		v-0.2l0.4-0.8l47.8-136.8c-0.4,0.269-0.8,0.631-1.2,1.1c-0.4,0.465-0.865,0.9-1.4,1.3l-1.6,1.4l-2,1.2
		c-1.065,0.531-2.065,0.866-3,1h-3.2l-0.399-0.2h-0.2c-0.8-0.269-1.4-0.534-1.8-0.8c-0.666-0.134-1.2-0.469-1.601-1
		c-0.531-0.4-1-0.869-1.399-1.4l-1-1.4c-0.531-1.065-0.866-1.865-1-2.4c-0.266-0.4-0.4-0.8-0.4-1.2c0-0.4-0.065-0.8-0.2-1.2
		c-0.131-0.666-0.231-1.331-0.3-2c-0.065-0.666-0.1-1.331-0.1-2v-3.6c0-0.666,0.034-1.266,0.1-1.8c0.068-0.531,0.1-1.066,0.1-1.6
		c0.135-1.2,0.27-2.366,0.4-3.5c0.135-1.131,0.334-2.231,0.6-3.3l1.2-6.6c0.269-1.066,0.5-2.131,0.7-3.2
		c0.2-1.065,0.435-2.131,0.7-3.2l1.6-6.4c0.534-2.131,1.135-4.231,1.8-6.3c0.669-2.065,1.335-4.166,2-6.3
		c0.801-2.131,1.601-4.2,2.4-6.2s1.734-4.065,2.8-6.2l3.4-6.2l2.2-3.2c0.269-0.531,0.634-1.031,1.1-1.5
		c0.469-0.465,0.9-1.031,1.3-1.7c0.534-0.531,1.069-1.066,1.601-1.6c0.534-0.531,1.134-1.131,1.8-1.8l2.6-1.8
		c0.531-0.266,1.065-0.565,1.601-0.9c0.531-0.332,1.199-0.631,2-0.9c0.665-0.266,1.531-0.531,2.6-0.8c0.4-0.131,0.932-0.2,1.6-0.2
		h0.601l0.399-0.2h0.601c1.2,0,2.6,0.2,4.2,0.6l2.399,0.6l2.4,1.2l2.399,1.8v0.2L554.39,187z M515.189,264.8l-0.199,0.2
		C515.124,265,515.189,264.935,515.189,264.8z M538.79,215.2c-1.069,1.469-2.135,3-3.2,4.6c-1.068,1.6-2.135,3.269-3.2,5
		c-1.065,1.734-2.065,3.435-3,5.1c-0.931,1.669-1.865,3.435-2.8,5.3l-2.8,5.2l-2.4,5.6c-0.8,1.869-1.531,3.7-2.2,5.5
		c-0.665,1.8-1.199,3.634-1.6,5.5l-0.6,2.6c-0.132,0.534-0.231,1-0.301,1.4c-0.065,0.4-0.1,0.8-0.1,1.2v1.8
		c0.669-0.4,1.2-0.931,1.6-1.6l3.601-4.4l3.399-4.8c1.069-1.731,2.101-3.466,3.101-5.2c1-1.731,2.034-3.531,3.1-5.4l5.4-11
		c1.466-3.066,2.899-6.231,4.3-9.5c1.4-3.266,2.766-6.5,4.1-9.7c-1.6-0.531-2.734-1-3.399-1.4L538.79,215.2z"/>
	<path fill="none" stroke="#FFFFFF" stroke-width="3" stroke-miterlimit="10" d="M594.789,383.6l71.2-218.8l-1.4-32.6l-0.8-25.6
		c-0.269-4.266-0.435-8.531-0.5-12.8c-0.069-4.266-0.169-8.531-0.3-12.8c-0.135-2.666,0.699-4.931,2.5-6.8
		c1.8-1.866,4.031-2.866,6.699-3c2.666-0.131,4.966,0.734,6.9,2.6c1.932,1.869,2.9,4.135,2.9,6.8V81
		c-0.135,4.269-0.234,8.5-0.301,12.7c-0.068,4.2-0.1,8.434-0.1,12.7c-0.135,1.869-0.2,3.769-0.2,5.7c0,1.934,0,3.834,0,5.7
		l33.4-102.4c1.331-3.866,3.766-6.7,7.3-8.5c3.531-1.8,7.231-2.1,11.1-0.9c3.866,1.334,6.7,3.769,8.5,7.3
		c1.801,3.535,2.031,7.234,0.7,11.1c0,0.134-0.034,0.234-0.1,0.3c-0.069,0.068-0.101,0.168-0.101,0.3l-61.199,159.2
		c0.131,8.4,0.266,16.7,0.399,24.9c0.132,8.2,0.331,16.369,0.601,24.5c0.266,4.269,0.5,8.5,0.699,12.7c0.2,4.2,0.5,8.369,0.9,12.5
		c0.266,4.269,0.666,8.4,1.2,12.4c0.131,0.8,0.231,1.565,0.3,2.3c0.065,0.731,0.231,1.5,0.5,2.3l8.4-9l12.6-14.8
		c8.131-10,16.131-20.2,24-30.6c3.865-5.2,7.731-10.4,11.6-15.6c3.866-5.2,7.731-10.465,11.601-15.8
		c3.865-5.331,7.665-10.631,11.399-15.9c3.731-5.266,7.531-10.631,11.4-16.1c7.6-10.8,15.031-21.565,22.3-32.3
		c7.266-10.731,14.565-21.5,21.9-32.3l21.6-32.6l10.8-16.4l5.2-8.2l5.4-8.2l0.6-0.8c2.4-3.2,5.565-5.1,9.5-5.7
		c3.932-0.6,7.5,0.3,10.7,2.7c2.666,2,4.432,4.568,5.3,7.7c0.866,3.134,0.7,6.169-0.5,9.1l-102.2,259
		c-0.534,1.2-1.368,2.065-2.5,2.6c-1.134,0.531-2.234,0.531-3.3,0c-1.068-0.399-1.868-1.134-2.399-2.199
		c-0.535-1.069-0.669-2.135-0.4-3.2l58-185.2c-7.469,9.734-14.9,19.369-22.3,28.9c-7.4,9.535-14.9,19.035-22.5,28.5
		c-4.135,5.069-8.269,10.169-12.4,15.3c-4.134,5.134-8.334,10.234-12.6,15.3c-4.135,5.069-8.335,10.1-12.601,15.1
		c-4.269,5-8.534,10.034-12.8,15.1c-4.269,5.068-8.568,10.034-12.899,14.9c-4.335,4.869-8.77,9.7-13.301,14.5l-13.8,14.2
		c-2.399,2.4-4.8,4.731-7.2,7c-2.399,2.266-4.868,4.466-7.399,6.601l-0.2,0.199c-0.935,0.801-2,1.166-3.2,1.101
		c-1.2-0.069-2.2-0.569-3-1.5l-0.2-0.2l-1.399-2.2l-0.8-2c-0.27-0.668-0.469-1.234-0.601-1.7c-0.134-0.469-0.269-1.035-0.399-1.7
		c-0.27-1.069-0.535-2.168-0.801-3.3c-0.269-1.134-0.534-2.234-0.8-3.3c-0.399-2.134-0.769-4.266-1.1-6.4
		c-0.335-2.131-0.635-4.266-0.9-6.4c-0.669-4.266-1.2-8.531-1.6-12.8c-0.4-4.266-0.8-8.531-1.2-12.8l-1.6-19.4l-66,171.4
		c-0.4,1.065-1.169,1.865-2.301,2.399c-1.134,0.531-2.234,0.601-3.3,0.2c-1.068-0.4-1.834-1.135-2.3-2.2
		C594.62,385.731,594.521,384.666,594.789,383.6z"/>
	<path fill="none" stroke="#FFFFFF" stroke-width="3" stroke-miterlimit="10" d="M841.787,256c-0.266,1.6-0.465,3.2-0.6,4.8
		c-0.131,1.6-0.2,3.135-0.2,4.6c0,0.8,0.034,1.569,0.101,2.3c0.068,0.734,0.168,1.434,0.3,2.1c0,0.531,0.134,1.066,0.399,1.6
		l0.4,1.4l0.4,0.8c0.134,0.131,0.199,0.266,0.199,0.4h1c0.935,0,2-0.2,3.2-0.6c0.534-0.269,1.101-0.569,1.7-0.9
		c0.6-0.334,1.231-0.7,1.9-1.1c1.199-0.8,2.431-1.731,3.699-2.8c1.266-1.066,2.5-2.131,3.7-3.2c1.2-1.065,2.4-2.2,3.601-3.4
		c1.199-1.2,2.331-2.466,3.399-3.8l6.601-7.8c1.065-1.465,2.1-2.866,3.1-4.2c1-1.332,2.031-2.731,3.1-4.2l6-8.6
		c1.866-2.931,3.731-5.866,5.601-8.8c1.865-2.931,3.665-5.931,5.399-9l2.601-4.6l2.6-4.6l2.4-4.6l1.8-3.6l0.6-1V197
		c0.932-1.866,2.332-3.1,4.2-3.7c1.866-0.6,3.731-0.431,5.601,0.5c1.865,0.8,3.1,2.135,3.699,4c0.601,1.869,0.5,3.734-0.3,5.6
		l-0.399,0.6l-2.801,4.8l-3,4.6l-2.8,4.4c-0.534,0.8-1,1.6-1.399,2.4c-0.4,0.8-0.869,1.534-1.4,2.2c-2,3.069-3.969,6.1-5.9,9.1
		c-1.934,3-3.969,5.969-6.1,8.9c-1.068,1.469-2.1,2.969-3.1,4.5c-1,1.535-2.035,3.035-3.101,4.5l-6.399,8.6
		c-1.069,1.469-2.2,2.9-3.4,4.3c-1.2,1.4-2.4,2.834-3.6,4.3c-1.2,1.469-2.4,2.869-3.601,4.2c-1.2,1.332-2.534,2.666-4,4
		c-2.8,2.932-5.8,5.466-9,7.6l-2.6,1.8l-3,1.6l-3.2,1.2c-0.669,0.266-1.3,0.466-1.9,0.6c-0.6,0.132-1.23,0.2-1.899,0.2
		c-0.531,0.132-1.266,0.2-2.2,0.2h-1.8c-0.132,0-0.231-0.034-0.3-0.1c-0.066-0.069-0.166-0.101-0.301-0.101
		c-1.73-0.269-3.331-0.734-4.8-1.399c-1.466-0.935-2.8-2-4-3.2c-0.531-0.669-1-1.269-1.399-1.8c-0.4-0.534-0.801-1.134-1.2-1.8
		c-0.266-0.669-0.531-1.234-0.8-1.7c-0.266-0.469-0.531-1.034-0.801-1.7l-1-3.4c-0.266-1.068-0.465-2.134-0.6-3.2
		c-0.131-1.066-0.266-2.131-0.4-3.2c-0.266-2-0.431-4-0.5-6c-0.065-2-0.031-3.931,0.101-5.8c0-1.066,0.034-2.031,0.1-2.9
		c0.069-0.866,0.101-1.832,0.101-2.9l0.6-5.6c0.4-3.866,0.9-7.631,1.5-11.3c0.6-3.666,1.369-7.3,2.3-10.9
		c1.601-7.6,3.869-14.866,6.8-21.8c0.801-1.866,1.601-3.666,2.4-5.4c0.8-1.731,1.734-3.531,2.8-5.4l1.601-2.8l1.8-2.6
		c0.669-1.065,1.368-2.031,2.1-2.9c0.731-0.866,1.565-1.766,2.5-2.7c0.932-1.2,1.932-2.131,3-2.8c0.666-0.531,1.3-1.031,1.9-1.5
		c0.6-0.466,1.365-0.9,2.3-1.3c1.6-0.931,3.6-1.731,6-2.4c0.266,0,0.565-0.031,0.9-0.1c0.331-0.065,0.631-0.1,0.899-0.1
		c0.266-0.131,0.601-0.2,1-0.2h2.2c0.531,0,0.932,0.069,1.2,0.2c0.531,0,1.331,0.134,2.399,0.4c1.601,0.4,3.266,1.134,5,2.2
		c1.601,1.2,2.866,2.334,3.801,3.4c0.266,0.269,0.5,0.568,0.699,0.9c0.2,0.334,0.366,0.634,0.5,0.9l1,1.6l1.4,3.2l0.6,2.6l0.4,2.4
		c0.131,0.669,0.2,1.334,0.2,2c0,0.669,0,1.334,0,2c0,2.4-0.2,4.669-0.601,6.8c-0.269,1.069-0.5,2.1-0.699,3.1
		c-0.2,1-0.435,1.969-0.7,2.9c-0.4,1.734-0.935,3.668-1.601,5.8c-0.534,0.935-0.868,1.8-1,2.6l-1.199,2.8
		c-0.535,1.6-1.27,3.334-2.2,5.2l-1.2,2.6l-0.6,1.4l-0.601,1.4c-1.868,3.734-4.068,7.269-6.6,10.6c-0.669,0.8-1.335,1.634-2,2.5
		c-0.669,0.869-1.4,1.7-2.2,2.5l-2.4,2.2l-3,2.2l-3.399,1.8c-1.469,0.668-3,1.068-4.601,1.2h-2.8c-1.065-0.266-2.065-0.6-3-1
		c-0.399,0-0.731-0.131-1-0.4l-1.2,4.2L841.787,256z M849.588,234c0.131,0.4,0.199,0.8,0.199,1.2c0.266-0.131,0.432-0.266,0.5-0.4
		c0.066-0.131,0.231-0.331,0.5-0.6c1.066-0.8,1.866-1.731,2.4-2.8c0.666-0.931,1.4-2.131,2.2-3.6c0.665-1.331,1.2-2.731,1.6-4.2
		c0.4-1.466,0.731-2.931,1-4.4c0-0.131,0.031-0.266,0.101-0.4c0.065-0.131,0.1-0.331,0.1-0.6v-0.6l0.2-0.6l0.399-2.6l0.601-5
		c0-0.266,0.031-0.431,0.1-0.5c0.065-0.065,0.101-0.231,0.101-0.5l-0.601,1.2c-0.8,1.469-1.568,2.9-2.3,4.3
		c-0.734,1.4-1.435,2.834-2.1,4.3l-2.2,4.6l-1.8,4.6l-1.4,3.4c0,0.669,0.031,1.234,0.1,1.7
		C849.354,232.969,849.453,233.469,849.588,234z"/>
	<path fill="none" stroke="#FFFFFF" stroke-width="3" stroke-miterlimit="10" d="M905.385,197.6l19.2-40l0.2-0.8v0.2l1.2-2.4
		c1.465-3.066,3.73-5.166,6.8-6.3c3.065-1.131,6.131-0.965,9.2,0.5c2.665,1.334,4.6,3.3,5.8,5.9c1.2,2.6,1.466,5.234,0.8,7.9l-0.8,3
		l-2.8,6.4l-2.801,6.6l-5.399,13.2c-1.869,4.4-3.669,8.8-5.4,13.2c-1.734,4.4-3.469,8.8-5.2,13.2l-1.199,3
		c2.665-3.6,5.431-7.131,8.3-10.6c2.865-3.466,5.831-6.931,8.899-10.4c1.601-1.731,3.166-3.432,4.7-5.1
		c1.531-1.666,3.101-3.3,4.7-4.9l5-4.8l2.4-2.4l1.399-1.2l1-1h0.2l0.2-0.2c2.665-2.266,5.766-3.266,9.3-3
		c3.531,0.269,6.432,1.734,8.7,4.4c1.6,1.869,2.565,3.935,2.899,6.2c0.332,2.269,0.101,4.469-0.699,6.6
		c-1.069,1.734-1.734,2.8-2,3.2c-0.27,0.4-0.535,0.734-0.801,1c-0.8,0.8-1.334,1.469-1.6,2h0.2l-0.2,0.2h-0.2l-0.2,0.2
		c-0.668,0.669-1.269,1.4-1.8,2.2c-0.534,0.8-1.068,1.534-1.6,2.2c-2.269,2.8-4.335,6-6.2,9.6c-0.935,1.334-1.8,3-2.6,5
		c-0.535,1.069-0.869,1.869-1,2.4c-0.27,0.535-0.535,1.334-0.801,2.4c-0.399,0.8-0.6,1.534-0.6,2.2c-0.135,0.269-0.2,0.6-0.2,1
		c0.266-0.266,0.601-0.4,1-0.4c1.731,0,3.731-0.5,6-1.5c2.266-1,4.565-2.4,6.9-4.2c2.331-1.8,4.565-3.9,6.7-6.3
		c2.131-2.4,3.931-5,5.399-7.8l2.601-5l1.199-2.8l0.601-1.2l0.2-0.8v-0.2c0.131-0.131,0.199-0.266,0.199-0.4
		c0.4-1.865,1.4-3.3,3-4.3c1.601-1,3.332-1.3,5.2-0.9c1.866,0.4,3.3,1.4,4.3,3s1.231,3.334,0.7,5.2c-0.134,0.935-0.534,1.8-1.2,2.6
		l-0.399,0.6l-2,2.6l-1.8,2.6l-3.801,5c-5.6,7.469-11.368,13.5-17.3,18.1c-5.935,4.6-11.834,6.969-17.7,7.1
		c-0.399,0-0.834,0.035-1.3,0.1c-0.469,0.069-0.899,0.1-1.3,0.1l-1.6-0.4c-0.4,0-1-0.131-1.801-0.4
		c-1.068-0.531-2.134-1.331-3.199-2.4c-0.669-0.931-1.27-1.866-1.801-2.8l-0.8-2.6c-0.269-0.8-0.399-1.565-0.399-2.3
		c0-0.731,0-1.432,0-2.1v-3.2c-1.869,1.6-3.669,3.269-5.4,5c-1.734,1.734-3.469,3.469-5.2,5.2c-3.068,3.069-6,6.168-8.8,9.3
		c-2.8,3.134-5.534,6.369-8.2,9.7c-5.334,6.8-10.068,13.734-14.2,20.8c-0.665,1.466-1.766,2.531-3.3,3.2
		c-1.531,0.666-3.031,0.666-4.5,0c-1.2-0.535-2.165-1.334-2.899-2.4c-0.731-1.069-0.966-2.269-0.7-3.6V270
		c0.269-2.666,0.568-5.2,0.899-7.6c0.335-2.4,0.7-4.8,1.101-7.2c0.534-2.4,1-4.8,1.399-7.2c0.4-2.4,0.935-4.8,1.601-7.2
		c1.068-4.8,2.169-9.531,3.3-14.2c1.135-4.666,2.3-9.332,3.5-14l1.6-5.4c-0.931-0.131-1.931-0.666-3-1.6
		c-1.199-1.066-1.965-2.3-2.3-3.7C904.554,200.5,904.72,199.069,905.385,197.6z M960.585,228.4c0.131,0.134,0.266,0.2,0.4,0.2h0.199
		v-0.2H960.585z"/>
	<path fill="none" stroke="#FFFFFF" stroke-width="3" stroke-miterlimit="10" d="M1003.983,139.4l8.601-1.4
		c0.399-1.466,0.865-2.8,1.399-4c0.531-1.866,1.266-3.931,2.2-6.2l2.4-6.6l2.8-6.6l1.8-3.6c0.266-0.266,0.466-0.565,0.601-0.9
		c0.131-0.332,0.331-0.7,0.6-1.1c0.266-0.531,0.531-0.931,0.8-1.2c0.132-0.4,0.531-0.931,1.2-1.6c0.131-0.266,0.466-0.666,1-1.2
		c0.266-0.266,0.5-0.531,0.7-0.8c0.2-0.266,0.565-0.531,1.1-0.8l1.601-1c0.531-0.4,1.465-0.8,2.8-1.2
		c0.399-0.131,0.766-0.231,1.1-0.3c0.331-0.065,0.831-0.166,1.5-0.3h1.8c1.066,0,2.2,0.2,3.4,0.6c1.466,0.534,2.731,1.134,3.8,1.8
		c0.932,0.534,1.866,1.4,2.8,2.6c0.666,0.668,1.266,1.534,1.801,2.6c0.266,0.269,0.431,0.6,0.5,1c0.065,0.4,0.165,0.734,0.3,1
		c0.399,1.2,0.6,2.134,0.6,2.8c0.132,0.534,0.2,1.134,0.2,1.8c0,0.535-0.034,1-0.1,1.4c-0.069,0.4-0.101,0.734-0.101,1
		c0,0.4-0.034,0.734-0.1,1c-0.069,0.269-0.101,0.534-0.101,0.8l-0.6,2.4l-1.2,4.2l-1.399,3.4l-1,3l164-29.2
		c3.465-0.531,6.665,0.234,9.6,2.3c2.932,2.069,4.731,4.834,5.4,8.3c0.665,3.6-0.035,6.869-2.101,9.8
		c-2.068,2.934-4.899,4.734-8.5,5.4h-0.8l-175.4,19.6c-0.269,0.534-0.5,1-0.699,1.4c-0.2,0.4-0.369,0.8-0.5,1.2l-1.601,2.8l-3.2,6
		l-3.6,6c-0.4,1.334-0.834,2.6-1.3,3.8c-0.469,1.2-0.9,2.4-1.3,3.6l-4.4,12.2l-4.2,12.4l-4.2,12.2l-4,12.4
		c-0.668,2.134-1.334,4.234-2,6.3c-0.668,2.069-1.334,4.1-2,6.1l-1.8,6.2l-1.8,6.4l-1.8,6.2c-0.269,1.069-0.534,2.1-0.8,3.1
		c-0.27,1-0.531,2.034-0.801,3.1c-0.531,2.134-1.031,4.234-1.5,6.3c-0.465,2.069-0.899,4.166-1.3,6.3
		c-0.399,2.131-0.8,4.231-1.2,6.3c-0.399,2.065-0.73,4.166-1,6.3c-0.131,1.065-0.23,2.065-0.3,3c-0.065,0.932-0.1,1.932-0.1,3
		c-0.132,0.666-0.2,1.666-0.2,3c0,0.4,0.034,0.831,0.1,1.3c0.069,0.466,0.101,0.9,0.101,1.301v0.199l1-0.399l2-1.601l2.2-2
		c0.665-0.668,1.365-1.368,2.1-2.1c0.731-0.734,1.432-1.5,2.1-2.3l4-4.8l3.801-5.2l7.199-10.6l6.601-11.2l3.399-5.6l3-5.6
		c2.132-3.866,4.2-7.731,6.2-11.6c2-3.866,3.932-7.731,5.8-11.6l5.601-11.8l2.6-6l1.4-3l1.2-3c0.665-1.466,1.699-2.5,3.1-3.1
		s2.831-0.566,4.3,0.1c1.466,0.668,2.5,1.7,3.101,3.1c0.6,1.4,0.565,2.834-0.101,4.3c-0.134,0-0.2,0.134-0.2,0.4l-6.199,11.6
		l-6,11.8l-12.601,23.2l-3.2,5.8l-3.199,5.8c-1.2,1.869-2.369,3.769-3.5,5.7c-1.135,1.935-2.234,3.832-3.301,5.7l-7.199,11.2
		c-1.335,1.866-2.635,3.7-3.9,5.5c-1.269,1.8-2.635,3.632-4.1,5.5c-0.801,0.932-1.569,1.8-2.301,2.601
		c-0.734,0.8-1.568,1.665-2.5,2.6c-1.6,1.731-3.469,3.4-5.6,5c-1.2,0.8-2.531,1.466-4,2c-0.666,0.266-1.531,0.531-2.6,0.8
		c-0.266,0.132-0.731,0.2-1.4,0.2h-1c-0.531,0-0.932-0.068-1.2-0.2c-0.531,0-1.331-0.269-2.399-0.8c-0.801-0.534-1.4-1-1.801-1.4
		c-0.8-0.8-1.465-1.734-2-2.8c-0.266-0.534-0.431-1-0.5-1.399c-0.065-0.4-0.23-0.734-0.5-1l-0.399-2.2
		c-0.132-0.669-0.231-1.335-0.3-2c-0.066-0.669-0.101-1.335-0.101-2c-0.131-0.669-0.2-1.269-0.2-1.8c0-0.535,0-1.135,0-1.801
		c0-1.199,0-2.368,0-3.5c0-1.134,0.069-2.3,0.2-3.5c0.135-2.269,0.3-4.5,0.5-6.7c0.2-2.2,0.435-4.434,0.7-6.7
		c0.669-4.531,1.334-9,2-13.4c0.669-4.4,1.334-8.731,2-13l2.4-13.2c0.399-2.131,0.8-4.266,1.199-6.4c0.4-2.131,0.869-4.332,1.4-6.6
		l2.8-13.4c-1.331-1.6-1.8-3.466-1.399-5.6c0.668-2.4,1.334-4.531,2-6.4c0.269-1.066,0.568-2.1,0.899-3.1
		c0.335-1,0.7-2.031,1.101-3.1c0.668-2.131,1.399-4.2,2.199-6.2c0.801-2,1.601-4.065,2.4-6.2c1.466-3.731,2.9-7.431,4.3-11.1
		c1.4-3.666,2.831-7.366,4.3-11.1l-2.6,0.4c0.531-1.865,1.065-3.766,1.6-5.7c0.531-1.931,1.132-3.832,1.801-5.7l0.8-2.4l4.2-0.8
		l2.399-5.8l2.4-5.8l2-5.6c0.266-0.531,0.466-1,0.6-1.4c0.132-0.4,0.266-0.866,0.4-1.4l0.6-2.2c0.132-0.131,0.2-0.266,0.2-0.4v1.6
		c0,0.269,0.131,0.934,0.4,2l0.8,1.8l1.399,2.2l2.601,2.4c0.665,0.269,1.266,0.534,1.8,0.8c0.531,0.269,1.065,0.469,1.6,0.6
		c1.2,0.4,2.2,0.6,3,0.6h1.601c0.665-0.131,1.165-0.231,1.5-0.3c0.331-0.065,0.631-0.166,0.899-0.3c0.666-0.131,1.166-0.266,1.5-0.4
		c0.332-0.131,0.632-0.332,0.9-0.6c0.266-0.131,0.5-0.266,0.7-0.4c0.2-0.131,0.431-0.266,0.7-0.4l1.199-1
		c-0.134,0.534-0.469,1.334-1,2.4l-2.399,5.4c-0.269,0.4-0.534,1-0.8,1.8l5-0.8l-1.601,3.6l-3,6.2l-1.399,3l-1.601,3l-0.2,0.4
		l-3.399,0.4v0.2c-1.069,2.8-2.101,5.6-3.101,8.4c-1,2.8-2.034,5.6-3.1,8.4l-3.2,5.4c-2,3.6-4.334,7.334-7,11.2
		c-1.2,1.869-2.435,3.7-3.7,5.5c-1.269,1.8-2.568,3.634-3.899,5.5l-3.8,5.4l-4.2,5.2c-1.069,1.2-2.369,1.9-3.9,2.1
		c-1.531,0.2-2.899-0.231-4.1-1.3l-0.4-0.4c1.335-6.4,2.769-12.766,4.3-19.1c1.531-6.332,3.166-12.7,4.9-19.1
		c0.666-2.4,1.331-4.8,2-7.2c0.666-2.4,1.331-4.731,2-7l-2.6,0.2c-1.734,0.269-3.27-0.131-4.601-1.2
		c-1.334-1.065-2.131-2.531-2.399-4.4c-0.266-1.731,0.134-3.266,1.199-4.6C1001.05,140.469,1002.384,139.669,1003.983,139.4z
		 M1011.784,149.4l5-12v-0.2l25-4.4l-1.601,4c-0.399,1.069-0.8,2.069-1.2,3c-0.399,0.935-0.734,1.935-1,3l-2.399,5.8l-24.601,2.8
		L1011.784,149.4z"/>
	<path fill="none" stroke="#FFFFFF" stroke-width="3" stroke-miterlimit="10" d="M1053.182,198c1.469-3.065,2.935-6.065,4.399-9
		c1.466-2.931,2.932-5.931,4.4-9c0.8-1.466,1.6-2.966,2.4-4.5c0.8-1.531,1.531-3.031,2.199-4.5l4.801-8.8l9.399-17.6l2.4-4.4l2-5.8
		c1.065-3.2,2.131-6.431,3.2-9.7c1.065-3.266,2.199-6.5,3.399-9.7c0.666-1.731,1.331-3.4,2-5c0.666-1.6,1.331-3.266,2-5l2.4-5.2
		c0.266-0.4,0.531-0.831,0.8-1.3c0.266-0.466,0.531-0.966,0.8-1.5c0.132-0.266,0.266-0.531,0.4-0.8c0.131-0.266,0.331-0.531,0.6-0.8
		l1.4-2l1-1.2l0.6-0.6l0.8-0.8l1-0.8c0.266-0.266,0.531-0.466,0.801-0.6c0.266-0.131,0.6-0.331,1-0.6l2.399-1.2
		c0.4,0,0.731-0.066,1-0.2c0.132,0,0.266-0.031,0.4-0.1c0.131-0.065,0.266-0.1,0.399-0.1c0.266,0,0.466-0.031,0.601-0.1
		c0.131-0.066,0.331-0.1,0.6-0.1h2.4c0.531,0,0.931,0.069,1.2,0.2c0.131,0,0.266,0.034,0.399,0.1c0.132,0.069,0.331,0.1,0.601,0.1
		h0.6c-0.269,0-0.234,0.035,0.1,0.1c0.332,0.069,0.566,0.169,0.7,0.3c0.531,0.135,1.065,0.334,1.601,0.6
		c0.531,0.269,1.065,0.535,1.6,0.8c1.065,0.668,2,1.469,2.8,2.4l1,1.2l0.8,1.4c0.531,0.8,0.9,1.568,1.101,2.3
		c0.2,0.734,0.365,1.369,0.5,1.9c0.266,0.669,0.399,1.234,0.399,1.7c0,0.469,0,0.9,0,1.3v2c0,0.269-0.034,0.535-0.1,0.8
		c-0.068,0.269-0.1,0.534-0.1,0.8c-0.27,1.069-0.4,1.869-0.4,2.4l-1.2,3.6c-0.269,1.069-0.6,2.034-1,2.9
		c-0.399,0.869-0.8,1.769-1.2,2.7l-2.399,5l-5.2,9.2c-0.8,1.6-1.635,3.135-2.5,4.6c-0.869,1.469-1.834,2.935-2.9,4.4
		c-0.668,0.935-1.234,1.834-1.699,2.7c-0.469,0.869-1.035,1.7-1.7,2.5c-2.135,5.869-4.2,11.7-6.2,17.5s-3.935,11.7-5.8,17.7
		l-11.601,34.4c1.066-1.866,2.132-3.666,3.2-5.4c1.065-1.731,2.132-3.466,3.2-5.2c0.666-0.931,1.231-1.831,1.7-2.7
		c0.466-0.865,1.031-1.7,1.7-2.5l3.6-5.4l2.2-2.6c0.8-1.065,1.6-2,2.399-2.8l1.4-1.6c0.531-0.266,0.865-0.531,1-0.8l1.4-1
		c0.8-0.531,1.531-0.931,2.199-1.2l1.801-0.6c0.266-0.131,0.73-0.2,1.399-0.2h0.4c0-0.131,0.131-0.2,0.399-0.2h1.2l0.4,0.2h0.399
		c0.266,0,0.5,0.034,0.7,0.1c0.2,0.068,0.432,0.1,0.7,0.1c1.331,0.535,2.266,1,2.8,1.4c0.932,0.534,1.601,1.068,2,1.6
		c0.4,0.269,0.866,0.8,1.4,1.6c0.266,0.269,0.531,0.669,0.8,1.2l0.6,1.2l0.601,2c0.131,0.535,0.231,1,0.3,1.4
		c0.065,0.4,0.1,0.8,0.1,1.2c0.132,0.535,0.2,1.269,0.2,2.2v2c0,0.668,0,1.269,0,1.8c0,0.535-0.068,1.134-0.2,1.8
		c0,0.668-0.034,1.234-0.1,1.7c-0.068,0.469-0.1,1.035-0.1,1.7l-1,6.2l-1.2,6.2c-0.4,2-0.835,4-1.3,6c-0.469,2-0.969,4-1.5,6
		c-0.27,0.8-0.4,1.4-0.4,1.8l25.6-34.4c0.932-1.2,2.132-1.931,3.601-2.2c1.466-0.266,2.865,0.134,4.2,1.2
		c1.199,0.935,1.931,2.134,2.199,3.6c0.266,1.469-0.134,2.869-1.199,4.2l-46.2,62.4c-1.069,1.2-2.335,1.934-3.8,2.2
		c-1.469,0.269-2.869-0.065-4.2-1c-2-1.6-2.669-3.6-2-6c0-0.666,0.131-1.666,0.399-3c0-0.666,0.132-1.666,0.4-3l0.2-1.4l0.2-1.6
		l0.399-3l1.8-11.6l3-19.2c-1.734,2.534-3.368,5.034-4.899,7.5c-1.534,2.469-3.101,4.969-4.7,7.5l-12.4,20.2l-12.6,20.4
		c-2.269,3.465-4.435,6.866-6.5,10.2c-2.068,3.331-4.231,6.666-6.5,10c-0.531,1.466-1.432,2.466-2.7,3
		c-1.266,0.531-2.565,0.531-3.899,0c-1.2-0.534-2.101-1.334-2.7-2.399c-0.601-1.069-0.766-2.2-0.5-3.4l0.2-1
		c0.134-0.8,0.234-1.635,0.3-2.5c0.068-0.869,0.234-1.7,0.5-2.5l0.399-2.4l0.4-2.6c0.4-1.6,0.769-3.234,1.1-4.9
		c0.335-1.669,0.635-3.3,0.9-4.9c0.669-3.332,1.334-6.631,2-9.9c0.669-3.266,1.4-6.565,2.2-9.9c1.469-6.531,2.935-13.065,4.399-19.6
		c1.466-6.531,3-13.065,4.601-19.6l2.8-11.6l-3.6,3.8c-1.069,1.069-2.4,1.6-4,1.6c-1.601,0-2.932-0.531-4-1.6
		c-0.932-0.8-1.5-1.8-1.7-3C1052.481,200.2,1052.65,199.069,1053.182,198z"/>
	<path fill="none" stroke="#FFFFFF" stroke-width="3" stroke-miterlimit="10" d="M1176.98,191.8h-0.4l-0.2,0.2h-0.8l-1.399,0.6
		c-0.935,0.269-2.069,0.869-3.4,1.8l-3.4,2.6c-0.534,0.534-1.068,1.034-1.6,1.5c-0.534,0.469-1.068,1.034-1.6,1.7
		c-1.069,1.068-2.135,2.234-3.2,3.5c-1.069,1.269-2.135,2.568-3.2,3.9l-5.6,8.2c-3.2,5.6-6.266,11.669-9.2,18.2l-1.8,4.6
		c-0.266,0.8-0.531,1.6-0.801,2.4c-0.266,0.8-0.531,1.6-0.8,2.4c-0.266,0.8-0.531,1.6-0.8,2.4c-0.266,0.8-0.531,1.6-0.8,2.4
		l-1.2,4.8c-0.266,0.8-0.432,1.6-0.5,2.4c-0.065,0.8-0.166,1.6-0.3,2.4c-0.132,0.8-0.231,1.6-0.3,2.4
		c-0.066,0.8-0.101,1.534-0.101,2.2v1.4l1-1l1.4-1.6c0.269-0.266,0.5-0.6,0.7-1c0.199-0.4,0.434-0.731,0.699-1
		c0.27-0.266,0.5-0.566,0.7-0.9c0.2-0.331,0.435-0.7,0.7-1.1l1.2-2l1.2-2.2c0.8-1.466,1.568-2.966,2.3-4.5
		c0.734-1.531,1.435-3.1,2.1-4.7c0.669-1.6,1.3-3.2,1.9-4.8c0.6-1.6,1.231-3.266,1.899-5c0.531-1.6,1.066-3.231,1.601-4.9
		c0.531-1.666,1-3.366,1.399-5.1l1.2-5c0-0.266,0.065-0.466,0.2-0.6v-1.8l0.2,0.2c0-0.131,0.031-0.2,0.1-0.2
		c0.065,0,0.101-0.066,0.101-0.2c0-0.531,0.065-0.931,0.199-1.2V214l1.601-2.8c1.466-2.666,3.631-4.432,6.5-5.3
		c2.865-0.866,5.631-0.565,8.3,0.9c2.266,1.2,3.9,3,4.9,5.4c1,2.4,1.165,4.8,0.5,7.2v0.2l-0.2,0.2v0.6l-0.2,1.2l-0.6,2.2l8-13
		l4.399-7c0.8-1.065,1.565-2.2,2.3-3.4c0.731-1.2,1.5-2.4,2.301-3.6c1.065-1.6,2.531-2.6,4.399-3c1.866-0.4,3.601-0.065,5.2,1
		c1.6,1.069,2.6,2.535,3,4.4c0.4,1.869,0.065,3.6-1,5.2l-4.2,6.8l-4.2,7l-8.399,14l-8,14.2l-3.8,7l-3.4,7
		c-0.8,1.869-2.169,3.2-4.1,4c-1.935,0.8-3.835,0.734-5.7-0.2c-1.2-0.4-2.135-1.131-2.8-2.2h-0.2l-1-1.6l-0.601-1.4l-0.8-2
		c-0.269-0.531-0.435-1.065-0.5-1.6c-0.068-0.531-0.169-1-0.3-1.4l-3.6,5.6c-0.27,0.4-0.535,0.769-0.801,1.1
		c-0.269,0.334-0.534,0.7-0.8,1.1l-1.8,2.4c-0.4,0.8-0.935,1.534-1.6,2.2c-0.801,1.069-1.466,1.869-2,2.4
		c-1.2,1.6-2.731,3.131-4.601,4.6l-3.2,2.2l-2.399,0.8c-0.266,0-0.466,0.066-0.601,0.2h-0.8c-0.399,0.131-0.865,0.2-1.399,0.2
		c-1.066,0-2.2-0.2-3.4-0.6c-1.065-0.269-2.065-0.935-3-2c-0.4-0.269-0.766-0.635-1.1-1.1c-0.332-0.469-0.632-0.834-0.9-1.1l-1-2.2
		c-0.266-0.666-0.466-1.331-0.6-2c-0.132-0.666-0.266-1.331-0.4-2c-0.131-0.531-0.2-1.065-0.2-1.6c0-0.531,0-1.066,0-1.6
		c-0.131-1.066-0.165-2.1-0.1-3.1c0.068-1,0.169-2.031,0.3-3.1c0-0.931,0.068-1.866,0.2-2.8c0.134-0.931,0.269-1.866,0.399-2.8
		l1-5.6c0.27-0.932,0.5-1.832,0.7-2.7c0.2-0.866,0.435-1.766,0.7-2.7c0.269-0.931,0.5-1.831,0.7-2.7c0.2-0.866,0.435-1.766,0.7-2.7
		l1.399-5.4c2.269-7.2,4.869-14.131,7.8-20.8c0.669-1.731,1.4-3.432,2.2-5.1c0.8-1.666,1.601-3.366,2.4-5.1
		c0.935-1.731,1.868-3.431,2.8-5.1c0.935-1.666,1.935-3.366,3-5.1c0.534-0.931,1.068-1.8,1.6-2.6c0.531-0.8,1.132-1.6,1.801-2.4
		l3.8-5.2l5-4.8l2.8-2.4l1.6-1.2l0.601-0.2l0.399-0.4l0.801-0.4c3.065-2.131,6.365-2.866,9.899-2.2c3.531,0.669,6.3,2.534,8.3,5.6
		c2.132,3.069,2.866,6.369,2.2,9.9c-0.669,3.534-2.534,6.369-5.6,8.5C1179.78,190.8,1178.446,191.4,1176.98,191.8z M1133.98,264.8
		v0.2l0.2-0.2H1133.98z"/>
</g>

</svg>
